<?xml version="1.0" encoding="UTF-8"?>
<!DOCTYPE svg PUBLIC "-//W3C//DTD SVG 1.1//EN" "http://www.w3.org/Graphics/SVG/1.1/DTD/svg11.dtd">
<!-- Creator: CorelDRAW X7 -->
<svg xmlns="http://www.w3.org/2000/svg" xml:space="preserve" width="48.9806mm" height="29.198mm" version="1.1" style="shape-rendering:geometricPrecision; text-rendering:geometricPrecision; image-rendering:optimizeQuality; fill-rule:evenodd; clip-rule:evenodd"
viewBox="0 0 203 121"
 xmlns:xlink="http://www.w3.org/1999/xlink">
 <defs>
  <style type="text/css">
   <![CDATA[
    .fil2 {fill:#FEFEFE}
    .fil0 {fill:#CE7E4A}
    .fil1 {fill:#F2BA33}
   ]]>
  </style>
 </defs>
 <g id="Capa_x0020_1">
  <metadata id="CorelCorpID_0Corel-Layer"/>
  <path class="fil0" d="M125 58c-5,0 -11,0 -18,0l18 0z"/>
  <path class="fil1" d="M111 47l47 0c-3,8 -8,11 -17,11 5,8 5,9 10,15l5 9c13,-2 17,-11 26,-26 5,-7 19,-26 21,-33l-77 0c-2,6 -12,18 -15,24l0 0z"/>
  <path class="fil1" d="M53 81c-5,-9 -11,-17 -16,-25l-28 -41c-3,-5 -7,-10 -9,-15 42,0 33,9 62,50 2,2 3,4 5,7l-2 3 -13 19c1,1 1,1 1,2z"/>
  <path class="fil2" d="M107 47c4,-6 13,-18 15,-24 -16,0 -27,-2 -36,10l-19 30 -13 20c6,12 10,13 14,12 7,-1 10,-5 16,-13 2,-3 4,-7 7,-11l16 -24 0 0z"/>
  <path class="fil2" d="M147 74l31 47c-42,1 -27,0 -56,-40 -2,-3 -13,-20 -15,-23l30 0c5,8 5,9 10,16l0 0z"/>
 </g>
</svg>
