<?xml version="1.0" encoding="UTF-8"?>
<!DOCTYPE svg PUBLIC "-//W3C//DTD SVG 1.1//EN" "http://www.w3.org/Graphics/SVG/1.1/DTD/svg11.dtd">
<!-- Creator: CorelDRAW X7 -->
<svg xmlns="http://www.w3.org/2000/svg" xml:space="preserve" width="48.9802mm" height="29.197mm" version="1.1" style="shape-rendering:geometricPrecision; text-rendering:geometricPrecision; image-rendering:optimizeQuality; fill-rule:evenodd; clip-rule:evenodd"
viewBox="0 0 2188 1304"
 xmlns:xlink="http://www.w3.org/1999/xlink">
 <defs>
  <style type="text/css">
   <![CDATA[
    .fil3 {fill:#373435}
    .fil2 {fill:#373435}
    .fil1 {fill:#F2BA33}
    .fil0 {fill:#CE7E4A}
   ]]>
  </style>
 </defs>
 <g id="Capa_x0020_1">
  <metadata id="CorelCorpID_0Corel-Layer"/>
  <path class="fil0" d="M1351 628c-58,-2 -124,-4 -198,-1l198 1z"/>
  <path class="fil1" d="M1191 509l505 -7c-25,95 -85,121 -180,126 56,78 58,90 108,163l61 91c138,-23 174,-118 280,-283 45,-69 200,-279 223,-351l-835 1c-21,58 -125,192 -162,260z"/>
  <path class="fil1" d="M573 869c-60,-92 -116,-181 -178,-269l-294 -442c-34,-54 -77,-101 -101,-158 453,-5 355,94 670,533 17,23 34,51 52,80l-20 30 -137 211c3,6 5,11 8,15z"/>
  <path class="fil2" d="M1154 509c37,-68 141,-202 162,-260 -178,0 -297,-18 -390,111l-208 321 -137 211c64,131 112,138 156,133 68,-17 103,-53 163,-142 22,-33 48,-73 79,-121l175 -253z"/>
  <path class="fil3" d="M1587 801l330 502c-453,6 -290,4 -605,-435 -16,-23 -141,-214 -159,-243l318 2c63,88 63,98 116,174z"/>
 </g>
</svg>
